<?xml version="1.0" encoding="UTF-8"?>
<svg width="264px" height="112px" viewBox="0 0 264 112" version="1.1" xmlns="http://www.w3.org/2000/svg" xmlns:xlink="http://www.w3.org/1999/xlink">
    <title>ArmorLogo-Black</title>
    <g id="Page-1" stroke="none" stroke-width="1" fill="none" fill-rule="evenodd">
        <g id="Artboard" fill="#000000" fill-rule="nonzero">
            <g id="ArmorLogo-Black">
                <path d="M120.750639,68.7681636 L115.383717,68.7681636 L115.383717,43.2011683 L120.79153,43.2011683 L131.004016,55.3764147 L131.004016,0 L0,0 L0,112 L131.004016,112 L131.004016,62.5527565 L120.750639,50.2241694 L120.750639,68.7681636 Z M50.2548375,61.6327127 L52.9229646,56.7155896 L56.9813801,56.7155896 L52.0438116,47.7809419 L40.4614823,68.7681636 L34.2767433,68.7681636 L48.9258854,43.2011683 L55.192406,43.2011683 L69.841548,68.7681636 L63.6568091,68.7681636 L59.7006207,61.6327127 L50.2548375,61.6327127 Z M99.4874042,68.7681636 L89.0295728,59.6290617 L89.0295728,54.5892662 L97.1464038,54.5892662 C99.9269806,54.5892662 101.337714,53.5158817 101.337714,51.3895582 C101.337714,49.2734575 99.9269806,48.1898503 97.1464038,48.1898503 L82.0167945,48.1898503 L82.0167945,68.7681636 L76.6498722,68.7681636 L76.6498722,43.2011683 L96.962395,43.2011683 C105.099671,43.2011683 106.806864,47.6582694 106.806864,51.3895582 C106.806864,58.003651 101.491055,59.3939394 97.033954,59.3939394 L96.5023731,59.3939394 L107.778021,68.7579409 L99.4874042,68.7579409 L99.4874042,68.7681636 Z" id="XMLID_39_"></path>
                <path d="M146.910551,50.2241694 L136.657174,62.5527565 L136.657174,112 L267.66119,112 L267.66119,0 L136.657174,0 L136.657174,55.3764147 L146.86966,43.2011683 L152.277474,43.2011683 L152.277474,68.7681636 L146.910551,68.7681636 L146.910551,50.2241694 Z M190.091274,65.4968967 C187.065352,68.0014604 182.628697,69.3201899 177.251552,69.3201899 C171.874407,69.3201899 167.427528,68.0014604 164.411829,65.4968967 C161.569916,63.1456736 160.056955,59.8539613 160.056955,55.9795546 C160.056955,52.1051479 161.559693,48.8236583 164.411829,46.4622125 C167.437751,43.9576488 171.874407,42.6389193 177.251552,42.6389193 C182.628697,42.6389193 187.075575,43.9576488 190.091274,46.4622125 C192.933187,48.8134356 194.446148,52.1051479 194.446148,55.9795546 C194.446148,59.8539613 192.94341,63.1456736 190.091274,65.4968967 Z M225.09383,68.7681636 L214.635999,59.6290617 L214.635999,54.5892662 L222.752829,54.5892662 C225.533406,54.5892662 226.94414,53.5158817 226.94414,51.3895582 C226.94414,49.2734575 225.533406,48.1898503 222.752829,48.1898503 L207.62322,48.1898503 L207.62322,68.7681636 L202.256298,68.7681636 L202.256298,43.2011683 L222.568821,43.2011683 C230.706097,43.2011683 232.41329,47.6582694 232.41329,51.3895582 C232.41329,58.003651 227.097481,59.3939394 222.64038,59.3939394 L222.108799,59.3939394 L233.384447,68.7579409 L225.09383,68.7579409 L225.09383,68.7681636 Z" id="XMLID_33_"></path>
                <path d="M120.750639,68.7681636 L115.383717,68.7681636 L115.383717,43.2011683 L120.79153,43.2011683 L131.004016,55.3764147 L131.004016,0 L0,0 L0,112 L131.004016,112 L131.004016,62.5527565 L120.750639,50.2241694 L120.750639,68.7681636 Z M50.2548375,61.6327127 L52.9229646,56.7155896 L56.9813801,56.7155896 L52.0438116,47.7809419 L40.4614823,68.7681636 L34.2767433,68.7681636 L48.9258854,43.2011683 L55.192406,43.2011683 L69.841548,68.7681636 L63.6568091,68.7681636 L59.7006207,61.6327127 L50.2548375,61.6327127 Z M99.4874042,68.7681636 L89.0295728,59.6290617 L89.0295728,54.5892662 L97.1464038,54.5892662 C99.9269806,54.5892662 101.337714,53.5158817 101.337714,51.3895582 C101.337714,49.2734575 99.9269806,48.1898503 97.1464038,48.1898503 L82.0167945,48.1898503 L82.0167945,68.7681636 L76.6498722,68.7681636 L76.6498722,43.2011683 L96.962395,43.2011683 C105.099671,43.2011683 106.806864,47.6582694 106.806864,51.3895582 C106.806864,58.003651 101.491055,59.3939394 97.033954,59.3939394 L96.5023731,59.3939394 L107.778021,68.7579409 L99.4874042,68.7579409 L99.4874042,68.7681636 Z" id="XMLID_29_"></path>
                <path d="M146.910551,50.2241694 L136.657174,62.5527565 L136.657174,112 L267.66119,112 L267.66119,0 L136.657174,0 L136.657174,55.3764147 L146.86966,43.2011683 L152.277474,43.2011683 L152.277474,68.7681636 L146.910551,68.7681636 L146.910551,50.2241694 Z M190.091274,65.4968967 C187.065352,68.0014604 182.628697,69.3201899 177.251552,69.3201899 C171.874407,69.3201899 167.427528,68.0014604 164.411829,65.4968967 C161.569916,63.1456736 160.056955,59.8539613 160.056955,55.9795546 C160.056955,52.1051479 161.559693,48.8236583 164.411829,46.4622125 C167.437751,43.9576488 171.874407,42.6389193 177.251552,42.6389193 C182.628697,42.6389193 187.075575,43.9576488 190.091274,46.4622125 C192.933187,48.8134356 194.446148,52.1051479 194.446148,55.9795546 C194.446148,59.8539613 192.94341,63.1456736 190.091274,65.4968967 Z M225.09383,68.7681636 L214.635999,59.6290617 L214.635999,54.5892662 L222.752829,54.5892662 C225.533406,54.5892662 226.94414,53.5158817 226.94414,51.3895582 C226.94414,49.2734575 225.533406,48.1898503 222.752829,48.1898503 L207.62322,48.1898503 L207.62322,68.7681636 L202.256298,68.7681636 L202.256298,43.2011683 L222.568821,43.2011683 C230.706097,43.2011683 232.41329,47.6582694 232.41329,51.3895582 C232.41329,58.003651 227.097481,59.3939394 222.64038,59.3939394 L222.108799,59.3939394 L233.384447,68.7579409 L225.09383,68.7579409 L225.09383,68.7681636 Z" id="XMLID_23_"></path>
                <path d="M177.251552,47.6480467 C169.809419,47.6480467 165.536327,50.6841913 165.536327,55.9897773 C165.536327,61.2851406 169.809419,64.3315078 177.251552,64.3315078 C184.693684,64.3315078 188.966776,61.2953633 188.966776,55.9897773 C188.966776,50.6841913 184.703907,47.6480467 177.251552,47.6480467 Z" id="XMLID_22_"></path>
            </g>
        </g>
    </g>
</svg>
